<svg xmlns="http://www.w3.org/2000/svg" width="64" height="64" enable-background="new 0 0 64 64" viewBox="0 0 64 64"><polyline fill="none" stroke="#010101" stroke-linecap="round" stroke-linejoin="round" stroke-miterlimit="10" stroke-width="2" points="57.149 40.673 57.149 57.196 40.987 57.196"/><polyline fill="none" stroke="#010101" stroke-linecap="round" stroke-linejoin="round" stroke-miterlimit="10" stroke-width="2" points="40.987 6.786 57.149 6.786 57.149 23.31"/><polyline fill="none" stroke="#010101" stroke-linecap="round" stroke-linejoin="round" stroke-miterlimit="10" stroke-width="2" points="6.853 23.31 6.853 6.786 23.017 6.786"/><polyline fill="none" stroke="#010101" stroke-linecap="round" stroke-linejoin="round" stroke-miterlimit="10" stroke-width="2" points="6.853 40.673 6.853 57.196 23.017 57.196"/><ellipse cx="32.002" cy="31.991" fill="none" stroke="#010101" stroke-linecap="round" stroke-linejoin="round" stroke-miterlimit="10" stroke-width="2" rx="18.997" ry="19.102"/><ellipse cx="32.002" cy="31.991" fill="none" stroke="#010101" stroke-linecap="round" stroke-linejoin="round" stroke-miterlimit="10" stroke-width="2" rx="6.339" ry="6.373"/><line x1="32.001" x2="32.001" y1="12.89" y2=".991" fill="none" stroke="#010101" stroke-linecap="round" stroke-linejoin="round" stroke-miterlimit="10" stroke-width="2"/><line x1="13.005" x2="1.171" y1="31.991" y2="31.991" fill="none" stroke="#010101" stroke-linecap="round" stroke-linejoin="round" stroke-miterlimit="10" stroke-width="2"/><line x1="32.001" x2="32.001" y1="51.093" y2="62.991" fill="none" stroke="#010101" stroke-linecap="round" stroke-linejoin="round" stroke-miterlimit="10" stroke-width="2"/><line x1="50.999" x2="62.831" y1="31.991" y2="31.991" fill="none" stroke="#010101" stroke-linecap="round" stroke-linejoin="round" stroke-miterlimit="10" stroke-width="2"/><polyline fill="none" stroke="#010101" stroke-linecap="round" stroke-linejoin="round" stroke-miterlimit="10" stroke-width="2" points="40.983 6.804 57.147 6.804 57.147 23.325"/><path fill="#010101" d="M57.147 39.688c-.553 0-1 .447-1 1v15.523H40.983c-.553 0-1 .447-1 1s.447 1 1 1h16.164c.553 0 1-.447 1-1V40.688C58.147 40.136 57.7 39.688 57.147 39.688zM6.851 24.325c.553 0 1-.447 1-1V7.802h15.162c.553 0 1-.447 1-1s-.447-1-1-1H6.851c-.553 0-1 .447-1 1v16.523C5.851 23.878 6.298 24.325 6.851 24.325zM23.013 56.212H7.851V40.688c0-.553-.447-1-1-1s-1 .447-1 1v16.523c0 .553.447 1 1 1h16.162c.553 0 1-.447 1-1S23.565 56.212 23.013 56.212zM31.999 24.638c-4.051 0-7.34 3.301-7.34 7.371 0 4.059 3.289 7.369 7.34 7.369 4.049 0 7.34-3.311 7.34-7.369C39.339 27.938 36.048 24.638 31.999 24.638zM31.999 37.378c-2.939 0-5.34-2.41-5.34-5.369 0-2.961 2.4-5.371 5.34-5.371s5.34 2.41 5.34 5.371C37.339 34.968 34.938 37.378 31.999 37.378z"/><path fill="#010101" d="M62.829,31.009H51.948c-0.51-10.281-8.719-18.541-18.949-19.051V1.009c0-0.551-0.451-1-1-1
			c-0.551,0-1,0.449-1,1v10.949c-10.23,0.51-18.439,8.77-18.951,19.051H1.169c-0.551,0-1,0.449-1,1c0,0.549,0.449,1,1,1h10.879
			c0.512,10.279,8.721,18.539,18.951,19.049v10.951c0,0.549,0.449,1,1,1c0.549,0,1-0.451,1-1V52.058
			c10.23-0.51,18.439-8.77,18.949-19.049h10.881c0.549,0,1-0.451,1-1C63.829,31.458,63.378,31.009,62.829,31.009z M31.999,50.108
			c-9.92,0-18-8.119-18-18.1s8.08-18.1,18-18.1s18,8.119,18,18.1S41.919,50.108,31.999,50.108z"/><path fill="#31A2DB" d="M31.999,13.909c-9.92,0-18,8.119-18,18.1s8.08,18.1,18,18.1s18-8.119,18-18.1S41.919,13.909,31.999,13.909
			z M31.999,39.378c-4.051,0-7.34-3.311-7.34-7.369c0-4.07,3.289-7.371,7.34-7.371c4.049,0,7.34,3.301,7.34,7.371
			C39.339,36.067,36.048,39.378,31.999,39.378z"/><path fill="#FDBF5E" d="M37.339,32.009c0,2.959-2.4,5.369-5.34,5.369s-5.34-2.41-5.34-5.369c0-2.961,2.4-5.371,5.34-5.371
			S37.339,29.048,37.339,32.009z"/></svg>